HIERARCHY
ROOT Hips
{
	OFFSET 0.00000 0.00000 0.00000
	CHANNELS 6 Xposition Yposition Zposition Zrotation Yrotation Xrotation 
	JOINT LHipJoint
	{
		OFFSET 0 0 0
		CHANNELS 3 Zrotation Yrotation Xrotation
		JOINT LeftHip
		{
			OFFSET 1.62067 -1.77917 0.70989
			CHANNELS 3 Zrotation Yrotation Xrotation
			JOINT LeftKnee
			{
				OFFSET 2.34532 -6.44371 0.00000
				CHANNELS 3 Zrotation Yrotation Xrotation
				JOINT LeftAnkle
				{
					OFFSET 2.74224 -7.53425 0.00000
					CHANNELS 3 Zrotation Yrotation Xrotation
					JOINT LeftToe
					{
						OFFSET 0.17032 -0.46794 2.08086
						CHANNELS 3 Zrotation Yrotation Xrotation
						End Site
						{
							OFFSET 0.00000 -0.00000 1.07476
						}
					}
				}
			}
		}
	}
	JOINT RHipJoint
	{
		OFFSET 0 0 0
		CHANNELS 3 Zrotation Yrotation Xrotation
		JOINT RightHip
		{
			OFFSET -1.55811 -1.77917 0.70989
			CHANNELS 3 Zrotation Yrotation Xrotation
			JOINT RightKnee
			{
				OFFSET -2.33243 -6.40830 0.00000
				CHANNELS 3 Zrotation Yrotation Xrotation
				JOINT RightAnkle
				{
					OFFSET -2.78798 -7.65993 0.00000
					CHANNELS 3 Zrotation Yrotation Xrotation
					JOINT RightToe
					{
						OFFSET -0.22707 -0.62388 2.04059
						CHANNELS 3 Zrotation Yrotation Xrotation
						End Site
						{
							OFFSET -0.00000 -0.00000 1.07030
						}
					}
				}
			}
		}
	}
	JOINT lowerback
	{
		OFFSET 0 0 0
		CHANNELS 3 Zrotation Yrotation Xrotation
		JOINT Chest
		{
			OFFSET 0.02203 1.91565 0.07161
			CHANNELS 3 Zrotation Yrotation Xrotation
			JOINT Chest2
			{
				OFFSET 0.01740 1.90525 0.11636
				CHANNELS 3 Zrotation Yrotation Xrotation
				JOINT lowerneck
				{
					OFFSET 0 0 0
					CHANNELS 3 Zrotation Yrotation Xrotation
					JOINT Neck
					{
						OFFSET -0.10841 1.83566 0.05067
						CHANNELS 3 Zrotation Yrotation Xrotation
						JOINT Head
						{
							OFFSET 0.06601 1.74760 -0.50505
							CHANNELS 3 Zrotation Yrotation Xrotation
							End Site
							{
								OFFSET 0.03102 1.85215 -0.17697
							}
						}
					}
				}
				JOINT LeftCollar
				{
					OFFSET 0 0 0
					CHANNELS 3 Zrotation Yrotation Xrotation
					JOINT LeftShoulder
					{
						OFFSET 2.87059 1.35470 0.16111
CHANNELS 3 Zrotation Xrotation Yrotation
						JOINT LeftElbow
						{
OFFSET 0 -5.435920 0.000000
CHANNELS 3 Zrotation Xrotation Yrotation
							JOINT LeftWrist
							{
OFFSET 0 -3.254600 0.000000
CHANNELS 3 Zrotation Xrotation Yrotation
								JOINT lhand
								{
									OFFSET 0 0 0
CHANNELS 3 Zrotation Xrotation Yrotation
									JOINT LFingers
									{
OFFSET 0 -0.498240 0.000000
CHANNELS 3 Zrotation Xrotation Yrotation
										End Site
										{
OFFSET 0 -0.401700 0.000000
										}
									}
								}
								JOINT LThumb
								{
OFFSET 0 0.000000 0.000000
CHANNELS 3 Zrotation Xrotation Yrotation
									End Site
									{
OFFSET 0 -0.407830 0.407830
									}
								}
							}
						}
					}
				}
				JOINT RightCollar
				{
					OFFSET 0 0 0
					CHANNELS 3 Zrotation Yrotation Xrotation
					JOINT RightShoulder
					{
						OFFSET -2.86643 1.23488 0.45957
CHANNELS 3 Zrotation Xrotation Yrotation
						JOINT RightElbow
						{
OFFSET 0 -5.338300 0.000000
CHANNELS 3 Zrotation Xrotation Yrotation
							JOINT RightWrist
							{
OFFSET 0 -3.231480 0.000000
CHANNELS 3 Zrotation Xrotation Yrotation
								JOINT rhand
								{
									OFFSET 0 0 0
CHANNELS 3 Zrotation Xrotation Yrotation
									JOINT RFingers
									{
OFFSET 0 -0.463640 0.000000
CHANNELS 3 Zrotation Xrotation Yrotation
										End Site
										{
OFFSET 0 -0.373800 0.000000
										}
									}
								}
								JOINT RThumb
								{
OFFSET 0 0.000000 0.000000
CHANNELS 3 Zrotation Xrotation Yrotation
									End Site
									{
OFFSET 0 -0.379510 0.379510
									}
								}
							}
						}
					}
				}
			}
		}
	}
}
MOTION
Frames: 12
Frame Time: 0.008333333333333333
3.511000 17.665100 2.092300 9.385000 -49.012300 11.371700 0.000000 0.000000 0.000000 -26.379900 -10.808500 -9.448200 0.000000 -0.000000 -0.000000 -1.967400 23.905800 -10.131100 0.095600 1.994200 5.489600 0.000000 0.000000 0.000000 -10.648900 11.853600 -3.395500 -0.721200 -5.426500 15.129200 0.210100 -20.778000 -27.774600 -4.077600 -12.263000 36.668800 -3.275700 0.911300 -10.556100 -1.223400 0.971200 -12.008000 0.599800 0.524100 -6.824700 12.375000 19.308800 -4.553900 -0.427500 25.043200 11.097700 -0.023800 12.730400 5.632300 0.000000 0.000000 0.000000 127.751100 -8.047600 25.387900 18.171300 -28.376000 4.630400 33.060600 -52.687800 21.088600 0.000000 0.000000 0.000000 -7.125000 0.000000 0.000000 2.763800 5.295200 2.499900 0.000000 0.000000 0.000000 -108.674900 6.941400 -23.344500 -146.483700 -43.723200 -106.222400 -8.856700 -50.511800 45.996800 0.000000 0.000000 0.000000 7.125000 0.000000 -0.000000 47.682000 71.196200 -31.908400
3.506943 17.667391 2.068182 9.311486 -49.152791 11.309505 0.000000 0.000000 0.000000 -26.180262 -10.614878 -9.524948 0.000000 0.000000 0.000000 -1.921546 23.672082 -10.629341 0.140757 2.375851 6.547346 0.000000 0.000000 0.000000 -10.573425 11.970239 -3.605779 -0.757807 -5.559518 15.511543 1.280099 -24.215016 -24.547537 -2.860686 -10.460891 30.487498 -3.323998 0.953127 -10.327655 -1.116585 1.024429 -12.041764 0.737303 0.562491 -6.994997 12.545053 19.255647 -3.999529 -0.846966 25.077941 10.691027 -0.227557 12.734055 5.492803 0.000000 0.000000 0.000000 127.600659 -8.230789 25.393981 18.178996 -28.385703 4.634054 32.692931 -51.843435 20.497951 0.000000 0.000000 0.000000 -7.125000 0.000000 0.000000 2.628284 6.049454 2.339205 0.000000 0.000000 0.000000 -108.837857 6.829391 -23.260601 -146.490769 -43.717834 -106.227258 -6.834095 -52.292780 44.710127 0.000000 0.000000 0.000000 7.125000 0.000000 0.000000 46.713462 69.688785 -29.736987
3.504611 17.667259 2.043504 9.742073 -49.201882 11.007800 0.000000 0.000000 0.000000 -26.428710 -10.639751 -9.586981 0.000000 0.000000 0.000000 -1.914744 23.638820 -10.712910 0.163058 2.598656 7.163476 0.000000 0.000000 0.000000 -10.894182 11.925466 -3.888302 -0.792150 -5.681354 15.862685 1.803003 -25.529937 -22.005353 -2.189537 -9.249032 26.578216 -3.625095 0.982524 -10.296339 -1.219150 1.073820 -12.027756 0.798066 0.606182 -7.007570 12.330379 19.193867 -3.912002 -0.785209 25.010861 10.488181 -0.222524 12.697767 5.376511 0.000000 0.000000 0.000000 127.832602 -8.403467 25.269684 18.046227 -28.216272 4.571115 32.494015 -52.571888 20.975835 0.000000 0.000000 0.000000 -7.125000 0.000000 0.000000 2.429296 5.554735 2.184664 0.000000 0.000000 0.000000 -108.739050 6.996120 -23.240104 -146.669935 -43.582139 -106.350841 -7.019919 -51.982988 44.954848 0.000000 0.000000 0.000000 7.125000 0.000000 0.000000 47.075022 69.909213 -30.215754
3.500539 17.663311 2.025215 10.183104 -49.341692 10.681969 0.000000 0.000000 0.000000 -26.804044 -10.570613 -9.580574 0.000000 0.000000 0.000000 -1.963421 23.894214 -10.419267 0.098684 2.019975 5.561050 0.000000 0.000000 0.000000 -11.255974 11.710885 -4.107099 -0.804112 -5.723004 15.982821 1.533681 -24.555980 -22.635017 -2.504928 -9.845471 28.478919 -3.818613 0.929460 -10.321404 -1.307742 1.011171 -11.981406 0.811079 0.583987 -6.944271 12.821169 19.195320 -4.257337 -1.087487 24.972782 10.896040 -0.286736 12.675533 5.657915 0.000000 0.000000 0.000000 127.824860 -8.121077 24.709258 18.115491 -28.304754 4.603844 33.217842 -53.833139 21.744856 0.000000 0.000000 0.000000 -7.125000 0.000000 0.000000 2.752981 4.513414 2.532425 0.000000 0.000000 0.000000 -108.622033 6.794167 -23.287418 -146.811305 -43.474564 -106.448289 -8.849790 -50.466848 46.049054 0.000000 0.000000 0.000000 7.125000 0.000000 0.000000 47.812094 71.226450 -32.036108
3.494322 17.671053 2.004287 9.814835 -49.434897 10.951503 0.000000 0.000000 0.000000 -26.488127 -10.422232 -9.652642 0.000000 0.000000 0.000000 -1.971079 23.930323 -10.261998 0.086105 1.889463 5.200375 0.000000 0.000000 0.000000 -10.988251 11.545236 -4.219871 -0.798477 -5.703490 15.926515 1.315257 -23.773120 -23.205030 -2.844176 -10.436165 30.403269 -3.619511 0.893327 -10.234137 -1.139783 0.949257 -12.078726 0.872480 0.546754 -7.095380 12.532702 19.256834 -3.239623 -1.060251 25.190848 9.918320 -0.397756 12.780839 5.160382 0.000000 0.000000 0.000000 127.708438 -7.936745 24.316784 18.223853 -28.442866 4.655367 33.788688 -53.710806 21.232364 0.000000 0.000000 0.000000 -7.125000 0.000000 0.000000 3.190763 4.956791 2.908616 0.000000 0.000000 0.000000 -108.688305 6.262264 -23.078405 -146.611172 -43.626761 -106.310361 -7.704766 -51.275857 45.416704 0.000000 0.000000 0.000000 7.125000 0.000000 0.000000 47.425085 70.435654 -30.983309
3.490094 17.672203 1.990980 9.587382 -49.394169 11.029063 0.000000 0.000000 0.000000 -26.228359 -10.360473 -9.587313 0.000000 0.000000 0.000000 -1.939525 23.763326 -10.448286 0.119505 2.228262 6.136868 0.000000 0.000000 0.000000 -10.753272 11.439669 -4.043180 -0.786468 -5.661391 15.805090 1.163820 -23.016161 -23.151528 -2.942207 -10.580655 30.898519 -3.313807 0.822038 -10.222886 -1.130105 0.848826 -11.946246 0.710395 0.472203 -6.938743 12.827212 19.414997 -3.852355 -0.941336 25.299455 10.692529 -0.265985 12.846667 5.530296 0.000000 0.000000 0.000000 127.776015 -7.785684 24.597488 18.173036 -28.378199 4.631165 33.093729 -52.647086 20.786583 0.000000 0.000000 0.000000 -7.125000 0.000000 0.000000 2.833016 5.629870 2.544605 0.000000 0.000000 0.000000 -108.372481 5.860716 -23.259329 -146.701427 -43.558220 -106.372628 -7.582084 -51.328531 45.423263 0.000000 0.000000 0.000000 7.125000 0.000000 0.000000 47.550992 70.398335 -31.040816
3.488852 17.664379 1.956939 8.916586 -49.235825 11.401694 0.000000 0.000000 0.000000 -25.289238 -10.324321 -9.720658 0.000000 0.000000 0.000000 -1.641158 22.366183 -13.102727 0.698002 5.257473 14.660558 0.000000 0.000000 0.000000 -10.092800 11.660803 -3.606778 -0.757884 -5.559786 15.512464 0.010291 -18.889948 -26.645910 -4.258497 -12.496304 37.511535 -2.761860 0.886590 -9.976782 -1.026481 0.910095 -11.921498 0.511268 0.468413 -7.034097 12.934572 19.473655 -4.285614 -0.818941 25.314523 11.474635 -0.145383 12.865420 5.847523 0.000000 0.000000 0.000000 127.796457 -7.956532 24.690248 18.126031 -28.318223 4.608826 33.434810 -52.953763 21.009487 0.000000 0.000000 0.000000 -7.125000 0.000000 0.000000 3.009081 5.296146 2.722443 0.000000 0.000000 0.000000 -108.398063 6.071063 -23.318278 -147.062995 -43.281518 -106.621132 -9.448250 -50.750316 45.814830 0.000000 0.000000 0.000000 7.125000 0.000000 0.000000 46.708721 71.286616 -31.256931
3.483684 17.678468 1.943471 8.622199 -49.307274 11.605609 0.000000 0.000000 0.000000 -25.314281 -10.225698 -9.615061 0.000000 0.000000 0.000000 -1.933325 23.725571 -10.368123 0.143568 2.442170 6.729275 0.000000 0.000000 0.000000 -9.859983 11.470820 -3.687613 -0.750388 -5.532964 15.435284 1.524819 -24.043301 -21.415483 -2.368041 -9.589443 27.660759 -2.526629 1.015203 -10.027797 -0.939139 1.076990 -11.922779 0.478878 0.538082 -7.006317 12.133213 19.275227 -3.870862 -0.424941 25.103208 10.852357 -0.082340 12.761361 5.420890 0.000000 0.000000 0.000000 127.653703 -7.765454 23.577530 18.322927 -28.568663 4.702677 34.401868 -55.296076 22.137778 0.000000 0.000000 0.000000 -7.125000 0.000000 0.000000 3.414102 3.773597 3.187856 0.000000 0.000000 0.000000 -108.574648 6.221257 -23.198517 -147.140807 -43.221511 -106.674466 -9.956843 -50.371777 46.333656 0.000000 0.000000 0.000000 7.125000 0.000000 0.000000 47.477511 71.790371 -32.318087
3.485110 17.677836 1.914161 9.387867 -49.153301 11.118032 0.000000 0.000000 0.000000 -25.784458 -10.528632 -9.667323 0.000000 0.000000 0.000000 -1.943679 23.784497 -10.404751 0.129457 2.318331 6.386237 0.000000 0.000000 0.000000 -10.389115 10.869705 -4.036495 -0.760498 -5.569112 15.539263 2.252547 -26.388843 -18.090530 -1.418479 -7.531128 21.299304 -3.127904 0.833864 -9.961302 -0.922095 0.861300 -11.934792 0.823066 0.478362 -7.069316 12.163695 19.291436 -3.540747 -0.738139 25.204277 10.706272 -0.198932 12.798525 5.372999 0.000000 0.000000 0.000000 127.635951 -7.420581 23.006998 18.324772 -28.571056 4.703578 34.248783 -55.668159 21.765580 0.000000 0.000000 0.000000 -7.125000 0.000000 0.000000 3.384920 4.236373 3.131284 0.000000 0.000000 0.000000 -108.765622 5.924767 -23.327712 -146.829115 -43.460947 -106.460534 -8.098785 -51.508086 45.944365 0.000000 0.000000 0.000000 7.125000 0.000000 0.000000 48.254845 70.901809 -32.059272
3.478057 17.679545 1.899023 9.076148 -49.291282 11.215344 0.000000 0.000000 0.000000 -25.605358 -10.273780 -9.549059 0.000000 0.000000 0.000000 -1.948081 23.809269 -10.413919 0.106742 2.106385 5.799702 0.000000 0.000000 0.000000 -10.109980 10.756595 -4.108791 -0.773062 -5.614181 15.668946 2.556449 -27.329043 -15.936956 -0.948199 -6.174415 17.299723 -3.031173 0.905080 -9.803951 -0.796233 0.956539 -11.897690 0.903106 0.526685 -7.118298 12.463485 19.163437 -3.377196 -1.192995 25.081148 10.461021 -0.389402 12.723619 5.357955 0.000000 0.000000 0.000000 127.558601 -7.585529 23.399801 18.257718 -28.485956 4.671542 33.932621 -54.949156 21.138597 0.000000 0.000000 0.000000 -7.125000 0.000000 0.000000 3.295113 5.028026 3.000051 0.000000 0.000000 0.000000 -108.774938 5.925952 -23.138766 -146.865343 -43.433234 -106.485418 -9.845207 -50.156410 45.856630 0.000000 0.000000 0.000000 7.125000 0.000000 0.000000 46.435827 71.451049 -31.205133
3.474071 17.687146 1.869984 8.906792 -49.357543 11.280949 0.000000 0.000000 0.000000 -25.420783 -10.163951 -9.587247 0.000000 0.000000 0.000000 -1.951213 23.828077 -10.446658 0.111753 2.153575 5.930361 0.000000 0.000000 0.000000 -9.903685 10.723842 -4.248378 -0.782818 -5.648659 15.768352 2.250060 -26.187504 -16.721243 -1.313873 -6.918388 19.615779 -2.850215 1.070688 -9.734502 -0.954470 1.167012 -11.814741 0.642166 0.611564 -7.062052 13.127802 19.078896 -3.737089 -1.439848 24.902386 10.837693 -0.470851 12.641007 5.637489 0.000000 0.000000 0.000000 127.851654 -7.908795 23.757084 18.208550 -28.423442 4.648071 32.709604 -53.675234 20.436799 0.000000 0.000000 0.000000 -7.125000 0.000000 0.000000 2.647922 6.114744 2.353442 0.000000 0.000000 0.000000 -108.541263 6.460668 -22.968108 -147.195309 -43.179392 -106.711799 -8.203370 -51.215728 45.696002 0.000000 0.000000 0.000000 7.125000 0.000000 0.000000 47.588522 70.782336 -31.440054
3.469589 17.698123 1.840909 8.777235 -49.263971 11.476134 0.000000 0.000000 0.000000 -25.234326 -10.270236 -9.692503 0.000000 0.000000 0.000000 -1.981481 23.980015 -9.977978 0.073217 1.745853 4.803833 0.000000 0.000000 0.000000 -9.641635 10.589053 -4.657355 -0.812960 -5.753630 16.071293 2.882791 -30.038307 -2.107677 -0.450238 3.043185 -8.493468 -2.741751 1.071932 -9.839450 -0.935518 1.174569 -11.726260 0.604986 0.607395 -6.901633 12.454722 19.406590 -5.135113 -0.137014 25.067402 12.356475 0.195596 12.768680 6.107302 0.000000 0.000000 0.000000 127.818832 -8.081860 24.630159 18.114489 -28.303490 4.603390 33.244390 -53.814035 21.746757 0.000000 0.000000 0.000000 -7.125000 0.000000 0.000000 2.770063 4.506403 2.546827 0.000000 0.000000 0.000000 -108.473421 6.549896 -23.162159 -147.113673 -43.242499 -106.655916 -8.841409 -50.523379 46.221665 0.000000 0.000000 0.000000 7.125000 0.000000 0.000000 48.231106 71.330818 -32.455926
